<svg width="23" height="15" viewBox="0 0 23 15" fill="none" xmlns="http://www.w3.org/2000/svg">
<path d="M0.476074 14C0.638835 13.6338 0.805664 13.2188 0.976562 12.7549C1.14746 12.2829 1.37533 11.6156 1.66016 10.7529L5.05371 0.633301H8.31299L11.6943 10.7529C11.9792 11.6074 12.207 12.2707 12.3779 12.7427C12.557 13.2147 12.7279 13.6338 12.8906 14H10.2051L9.19189 10.7529H4.21143L3.19824 14H0.476074ZM4.80957 8.7876H8.56934L6.67725 2.75732L4.80957 8.7876ZM16.0386 14.2197C15.4282 14.2197 14.883 14.0895 14.4028 13.8291C13.9308 13.5687 13.5605 13.2228 13.292 12.7915C13.0234 12.3602 12.8892 11.8963 12.8892 11.3999C12.8892 10.9279 12.995 10.46 13.2065 9.99609C13.4263 9.52409 13.8006 9.11719 14.3296 8.77539C14.8667 8.43359 15.6073 8.21794 16.5513 8.12842C16.7629 8.104 17.0355 8.07959 17.3691 8.05518C17.7109 8.03076 18.0405 8.01042 18.3579 7.99414C18.6753 7.96973 18.895 7.95752 19.0171 7.95752V7.50586C19.0171 7.16406 18.8218 6.91585 18.4312 6.76123C18.0487 6.60661 17.5116 6.5293 16.8198 6.5293C16.3397 6.5293 15.8555 6.62695 15.3672 6.82227C14.887 7.01758 14.3784 7.30241 13.8413 7.67676C13.8494 7.47331 13.8576 7.12337 13.8657 6.62695C13.882 6.1224 13.9064 5.68294 13.939 5.30859C14.4598 5.10514 15.005 4.91797 15.5747 4.74707C16.1525 4.56803 16.828 4.47852 17.6011 4.47852C18.7974 4.47852 19.7576 4.72673 20.4819 5.22314C21.2144 5.71143 21.5806 6.31771 21.5806 7.04199V10.6187C21.5806 11.2778 21.6375 11.88 21.7515 12.4253C21.8735 12.9624 22.0322 13.4873 22.2275 14H19.7495C19.6925 13.8698 19.6193 13.6948 19.5298 13.4751C19.4403 13.2554 19.363 13.0194 19.2979 12.7671C18.7852 13.2798 18.248 13.6501 17.6865 13.8779C17.125 14.1058 16.5757 14.2197 16.0386 14.2197ZM16.71 12.1323C17.0924 12.1323 17.4627 12.0509 17.8208 11.8882C18.1789 11.7254 18.5776 11.347 19.0171 10.7529V9.6543C18.8381 9.66243 18.5329 9.68685 18.1016 9.72754C17.6702 9.76009 17.3366 9.79264 17.1006 9.8252C16.4658 9.8903 16.0304 10.0409 15.7944 10.2769C15.5666 10.5047 15.4526 10.7692 15.4526 11.0703C15.4526 11.3633 15.5666 11.6156 15.7944 11.8271C16.0304 12.0306 16.3356 12.1323 16.71 12.1323Z" fill="#626364"/>
</svg>
