<svg width="22" height="23" viewBox="0 0 22 23" fill="none" xmlns="http://www.w3.org/2000/svg">
<g clip-path="url(#clip0_1662_3986)">
<path d="M16.1868 0.790223L13.388 0.785645C10.2436 0.785645 8.21153 2.91108 8.21153 6.20077V8.6975H5.39743C5.15425 8.6975 4.95734 8.89848 4.95734 9.14639V12.7639C4.95734 13.0118 5.15448 13.2125 5.39743 13.2125H8.21153V22.3406C8.21153 22.5885 8.40845 22.7893 8.65162 22.7893H12.3232C12.5664 22.7893 12.7633 22.5883 12.7633 22.3406V13.2125H16.0537C16.2968 13.2125 16.4937 13.0118 16.4937 12.7639L16.4951 9.14639C16.4951 9.02736 16.4486 8.91336 16.3662 8.82912C16.2838 8.74488 16.1715 8.6975 16.0548 8.6975H12.7633V6.58099C12.7633 5.56371 13.0011 5.04728 14.3009 5.04728L16.1864 5.0466C16.4293 5.0466 16.6262 4.84561 16.6262 4.59793V1.23889C16.6262 0.991436 16.4295 0.790681 16.1868 0.790223Z" fill="#8F8E94"/>
</g>
<defs>
<clipPath id="clip0_1662_3986">
<rect width="21.5832" height="22.0036" fill="white" transform="translate(0 0.785645)"/>
</clipPath>
</defs>
</svg>
