<svg width="23" height="23" viewBox="0 0 23 23" fill="none" xmlns="http://www.w3.org/2000/svg">
<g clip-path="url(#clip0_1662_3972)">
<path d="M15.6956 0.785645H7.60188C3.87742 0.785645 0.857117 3.80595 0.857117 7.53041V15.6241C0.857117 19.3486 3.87742 22.3689 7.60188 22.3689H15.6956C19.4201 22.3689 22.4404 19.3486 22.4404 15.6241V7.53041C22.4404 3.80595 19.4201 0.785645 15.6956 0.785645ZM20.4169 15.6241C20.4169 18.2276 18.2991 20.3455 15.6956 20.3455H7.60188C4.9984 20.3455 2.88055 18.2276 2.88055 15.6241V7.53041C2.88055 4.92693 4.9984 2.80907 7.60188 2.80907H15.6956C18.2991 2.80907 20.4169 4.92693 20.4169 7.53041V15.6241Z" fill="#8F8E94"/>
<path d="M11.6486 6.18164C8.66872 6.18164 6.25275 8.59762 6.25275 11.5775C6.25275 14.5573 8.66872 16.9733 11.6486 16.9733C14.6284 16.9733 17.0444 14.5573 17.0444 11.5775C17.0444 8.59762 14.6284 6.18164 11.6486 6.18164ZM11.6486 14.9498C9.7897 14.9498 8.27618 13.4363 8.27618 11.5775C8.27618 9.71725 9.7897 8.20507 11.6486 8.20507C13.5074 8.20507 15.0209 9.71725 15.0209 11.5775C15.0209 13.4363 13.5074 14.9498 11.6486 14.9498Z" fill="#8F8E94"/>
<path d="M17.4492 6.4956C17.8462 6.4956 18.1681 6.17369 18.1681 5.77661C18.1681 5.37952 17.8462 5.05762 17.4492 5.05762C17.0521 5.05762 16.7302 5.37952 16.7302 5.77661C16.7302 6.17369 17.0521 6.4956 17.4492 6.4956Z" fill="#8F8E94"/>
</g>
<defs>
<clipPath id="clip0_1662_3972">
<rect width="21.5832" height="21.5832" fill="white" transform="translate(0.857117 0.785645)"/>
</clipPath>
</defs>
</svg>
