<svg width="35" height="35" viewBox="0 0 35 35" fill="none" xmlns="http://www.w3.org/2000/svg">
<circle cx="24.7916" cy="11.6667" r="5.83333" fill="#2FB946"/>
<path fill-rule="evenodd" clip-rule="evenodd" d="M18.5412 16.5H7.29166C6.73938 16.5 6.29166 16.9477 6.29166 17.5C6.29166 18.0523 6.73938 18.5 7.29166 18.5H20.7183C19.8719 17.9765 19.1327 17.2963 18.5412 16.5ZM17.4506 9.20834C17.2255 9.84147 17.0795 10.5121 17.0245 11.2083H7.29166C6.73938 11.2083 6.29166 10.7606 6.29166 10.2083C6.29166 9.65606 6.73938 9.20834 7.29166 9.20834H17.4506ZM6.29166 24.7917C6.29166 24.2394 6.73938 23.7917 7.29166 23.7917H27.7083C28.2606 23.7917 28.7083 24.2394 28.7083 24.7917C28.7083 25.344 28.2606 25.7917 27.7083 25.7917H7.29166C6.73938 25.7917 6.29166 25.344 6.29166 24.7917Z" fill="#333333"/>
</svg>
