<svg width="22" height="23" viewBox="0 0 22 23" fill="none" xmlns="http://www.w3.org/2000/svg">
<g clip-path="url(#clip0_1662_3983)">
<path d="M20.4056 6.47878C20.1741 5.61814 19.4956 4.93971 18.6351 4.70797C17.063 4.27783 10.7747 4.27783 10.7747 4.27783C10.7747 4.27783 4.4866 4.27783 2.91455 4.69166C2.07059 4.92316 1.37549 5.61826 1.14399 6.47878C0.730286 8.0507 0.730286 11.3107 0.730286 11.3107C0.730286 11.3107 0.730286 14.5871 1.14399 16.1426C1.37573 17.0031 2.05404 17.6815 2.91468 17.9133C4.50316 18.3435 10.7749 18.3435 10.7749 18.3435C10.7749 18.3435 17.063 18.3435 18.6351 17.9297C19.4957 17.6981 20.1741 17.0196 20.4059 16.1591C20.8194 14.5871 20.8194 11.3272 20.8194 11.3272C20.8194 11.3272 20.836 8.0507 20.4056 6.47878ZM8.77262 14.3224V8.299L14.0017 11.3107L8.77262 14.3224Z" fill="#8F8E94"/>
</g>
<defs>
<clipPath id="clip0_1662_3983">
<rect width="21.4286" height="21.4286" fill="white" transform="translate(0.0714111 0.785645)"/>
</clipPath>
</defs>
</svg>
